<?xml version="1.0" encoding="utf-8"?>
<!-- Generator: Adobe Illustrator 21.0.2, SVG Export Plug-In . SVG Version: 6.00 Build 0)  -->
<svg version="1.1" id="Layer_1" xmlns="http://www.w3.org/2000/svg" xmlns:xlink="http://www.w3.org/1999/xlink" x="0px" y="0px"
	 viewBox="0 0 300 300" style="enable-background:new 0 0 300 300;" xml:space="preserve">
<style type="text/css">
	.st0{fill:#FFFFFF;stroke:#000A28;stroke-width:2;stroke-linecap:round;stroke-miterlimit:10;}
	.st1{fill:none;stroke:#000000;stroke-linecap:round;stroke-miterlimit:10;}
	.st2{fill:#000419;stroke:#000428;stroke-width:2;stroke-linecap:round;stroke-miterlimit:10;}
	.st3{fill:none;stroke:#FFFFFF;stroke-width:2;stroke-linecap:round;stroke-miterlimit:10;}
	.st4{fill:none;stroke:#000000;stroke-width:2;stroke-linecap:round;stroke-miterlimit:10;}
	.st5{fill:#FFFFFF;stroke:#000000;stroke-width:2;stroke-linecap:round;stroke-miterlimit:10;}
	.st6{fill:#FFFFFF;}
</style>
<g id="Layer_2">
</g>
<g id="Layer_5">
</g>
<g>
	<g id="Layer_1_1_">
		<circle class="st0" cx="150" cy="150" r="111.3"/>
		<path class="st1" d="M177,135"/>
		<circle class="st2" cx="150" cy="150" r="105"/>
	</g>
	<g id="Layer_7">
		<path class="st3" d="M198,112c0,0,2,3-3,5c-6.6,2.6-4,5-2,7"/>
		<path class="st3" d="M212,105c0,0,2,3-3,5c-6.6,2.6-4,5-2,7s-2,7-2,7"/>
		<path class="st3" d="M226,92c0,0,2,3-3,5c-6.6,2.6-4,5-2,7s-2,7-2,7"/>
		<path class="st3" d="M220,118c0,0,2,3-3,5c-6.6,2.6-4,5-2,7s-2,7-2,7"/>
		<path class="st3" d="M234,117c0,0,2,3-3,5c-6.6,2.6-4,5-2,7s-2,7-2,7"/>
		<path class="st3" d="M234,101c0,0,2,3-3,5c-6.6,2.6-4,5-2,7"/>
		<path class="st3" d="M243.5,127.5c0,0,2,3-3,5c-6.6,2.6-4,5-2,7s-2,7-2,7"/>
		<path class="st4" d="M226,169"/>
		<path class="st4" d="M230,155"/>
		<path class="st3" d="M214.5,182.5c0,0,2,3-3,5c-6.6,2.6-4,5-2,7s-2,7-2,7"/>
		<path class="st3" d="M203.5,173.5c0,0,2,3-3,5c-6.6,2.6-4,5-2,7s-2,7-2,7"/>
		<path class="st3" d="M190,195c0,0,2,3-3,5c-6.6,2.6-4,5-2,7s-2,7-2,7"/>
		<path class="st3" d="M200,204c0,0,2,3-3,5c-6.6,2.6-4,5-2,7s-2,7-2,7"/>
		<path class="st3" d="M215.5,209.5c0,0,2,3-3,5c-6.6,2.6-4,5-2,7"/>
		<path class="st3" d="M229,181c2.8,4.2-0.8,4.1-3,5c-6.6,2.6-4,5-2,7s-2,7-2,7"/>
		<path class="st3" d="M236,194c0,0,2,3-3,5c-6.6,2.6-4,5-2,7s-2,7-2,7"/>
	</g>
	<g id="Layer_8">
		<path class="st5" d="M77,168c-7-8-20-2-20-2s-11.2,14.8-1,25c11,11,26-5,26-5S84,176,77,168z"/>
		<path class="st4" d="M57,166c8,15,25,20,25,20"/>
	</g>
	<g id="Layer_6">
		<path class="st4" d="M151.4,155.5"/>
		<path class="st4" d="M146.6,148"/>
	</g>
	<g id="Layer_4">
		<path class="st4" d="M159.6,126"/>
		<path class="st4" d="M152,135"/>
		<path class="st4" d="M150.4,126.9"/>
	</g>
	<g id="Layer_3">
		<g>
			<path class="st5" d="M112.2,180.8c0,0-28.7-0.6-28.7-20.2s12.4-32.7,15.3-45.8c2.8-13-10.6-7.7-12.6-6.8c-0.1,0-0.2,0-0.2-0.2
				l1.1-9.5c0.1-0.7,0.7-1.3,1.4-1.3c4.7-0.2,21.4-0.2,21.4,9.2c0,11-8.6,18.3-14.7,41.5s17.1,14.7,17.1,14.7"/>
			<g>
				<path class="st4" d="M223.4,175.9"/>
				<path class="st4" d="M229.5,152.7"/>
				<path class="st5" d="M228,170l-41.6-3.9L174,158l29-9l7,3l24,3L228,170z"/>
				<path class="st5" d="M170.4,158.8l-3.9-6.1l3.7-6.1v-4.9l3.7-8.6l20.8-1.2L226,155"/>
				<path class="st5" d="M186.7,141.7c0,31.2-23.2,29.3-23.2,41.5c0,8.6,4.9,3.7,11,6.1c4.7,1.9,5.9,9.5,0,11
					c-4.9,1.2-9.2,1.5-14.7-1.2c-7.3-3.7-8.6-12.2-7.3-17.1c2.7-10.9,24.4-23.2,24.4-39.1"/>
				<path class="st5" d="M175,133.1c-4.2-10.2-14.1-15.9-18.8-12.1c-6.1,4.9,4.9,4.9,4.9,12.2c0,3.7-2.4,6.1-7.3,6.1
					c-4.9,0-8.6-9.8-8.6-9.8s-1.2-7.3,2.4-13.4c3.7-6.1,18.6-8.7,30.6,1.2c5.2,4.3,7.3,8.6,8.1,14.7"/>
				<g>
					<path class="st6" d="M129.3,229.7h21.5l-6.8-4.8h2.4v-2.4h7.3v-9.8h-7.3l-9.8-7.3v-8.6c0,0,17.1-6.7,17.1-25.7
						s-13.4-53.8-13.4-53.8V97.7h3.7v-7.3l3.7-2.4v-1.4h8.6v-4.4h-8.6V79l-3.1,1l-6.7-6.7v-9.8h-3.7v-3.7h-3.7v3.7h-3.7v9.8
						l-6.7,6.7l-3.1-1v3.1h-8.6v4.4h8.6V88l3.7,2.4v7.3h3.7v19.6c0,0-13.4,32.4-13.4,53.8s17.1,25.7,17.1,25.7v8.6l-9.8,7.3H111v9.8
						h7.3v2.4h2.4l-5.8,4.8h20.5"/>
					<line class="st4" x1="119" y1="224" x2="146" y2="224"/>
					<line class="st4" x1="118" y1="88" x2="147" y2="88"/>
					<line class="st4" x1="121.7" y1="97" x2="143.7" y2="97"/>
					<line class="st4" x1="111" y1="217.5" x2="153.7" y2="217.5"/>
					<line class="st4" x1="126.8" y1="73.3" x2="137.8" y2="73.3"/>
					<line class="st4" x1="126.8" y1="196.7" x2="137.8" y2="196.7"/>
				</g>
				<path class="st5" d="M249,184l-24.4-9.3h-13.4l11-28.1l7.3,6.1L254,155"/>
			</g>
		</g>
		<path class="st4" d="M192,142"/>
		<polyline class="st4" points="192,141 177,142 170,147 		"/>
	</g>
</g>
</svg>
