<?xml version="1.0" encoding="utf-8"?>
<!-- Generator: Adobe Illustrator 21.0.2, SVG Export Plug-In . SVG Version: 6.00 Build 0)  -->
<svg version="1.1" xmlns="http://www.w3.org/2000/svg" xmlns:xlink="http://www.w3.org/1999/xlink" x="0px" y="0px"
	 viewBox="0 0 300 300" style="enable-background:new 0 0 300 300;" xml:space="preserve">
<style type="text/css">
	.st0{fill:none;stroke:#000000;stroke-linecap:round;stroke-miterlimit:10;}
	.st1{fill:none;stroke:#000000;stroke-width:2;stroke-linecap:round;stroke-miterlimit:10;}
</style>
<g id="Layer_1">
	<path class="st0" d="M177,135"/>
	<circle class="st1" cx="150" cy="150" r="105"/>
	<circle class="st1" cx="150" cy="150" r="111.3"/>
</g>
<g id="Layer_7">
	<path class="st1" d="M200,112c0,0,2,3-3,5c-6.6,2.6-4,5-2,7"/>
	<path class="st1" d="M212,105c0,0,2,3-3,5c-6.6,2.6-4,5-2,7s-2,7-2,7"/>
	<path class="st1" d="M226,92c0,0,2,3-3,5c-6.6,2.6-4,5-2,7s-2,7-2,7"/>
	<path class="st1" d="M220,118c0,0,2,3-3,5c-6.6,2.6-4,5-2,7s-2,7-2,7"/>
	<path class="st1" d="M234,117c0,0,2,3-3,5c-6.6,2.6-4,5-2,7s-2,7-2,7"/>
	<path class="st1" d="M234,101c0,0,2,3-3,5c-6.6,2.6-4,5-2,7"/>
	<path class="st1" d="M242.5,125.5c0,0,2,3-3,5c-6.6,2.6-4,5-2,7s-2,7-2,7"/>
	<path class="st1" d="M226,169"/>
	<path class="st1" d="M230,155"/>
	<path class="st1" d="M214.5,185.5c0,0,2,3-3,5c-6.6,2.6-4,5-2,7s-2,7-2,7"/>
	<path class="st1" d="M201.5,175.5c0,0,2,3-3,5c-6.6,2.6-4,5-2,7s-2,7-2,7"/>
	<path class="st1" d="M190,195c0,0,2,3-3,5c-6.6,2.6-4,5-2,7s-2,7-2,7"/>
	<path class="st1" d="M202,204c0,0,2,3-3,5c-6.6,2.6-4,5-2,7s-2,7-2,7"/>
	<path class="st1" d="M213.5,211.5c0,0,2,3-3,5c-6.6,2.6-4,5-2,7"/>
	<path class="st1" d="M227,181c2.8,4.2-0.8,4.1-3,5c-6.6,2.6-4,5-2,7s-2,7-2,7"/>
	<path class="st1" d="M230,198c0,0,2,3-3,5c-6.6,2.6-4,5-2,7s-2,7-2,7"/>
</g>
<g id="Layer_8">
	<path class="st1" d="M77,168c-7-8-20-2-20-2s-11.2,14.8-1,25c11,11,26-5,26-5S84,176,77,168z"/>
	<path class="st1" d="M57,166c8,15,25,20,25,20"/>
</g>
<g id="Layer_6">
	<path class="st1" d="M151.4,155.5"/>
	<path class="st1" d="M146.6,148"/>
</g>
<g id="Layer_2">
</g>
<g id="Layer_4">
	<path class="st1" d="M159.6,126"/>
	<path class="st1" d="M152,135"/>
	<path class="st1" d="M150.4,126.9"/>
</g>
<g id="Layer_5">
</g>
<g id="Layer_3">
	<g>
		<path class="st1" d="M112.2,162.5c0,0-23.2,8.6-17.1-14.7s14.7-30.6,14.7-41.5c0-9.4-16.6-9.4-21.4-9.2c-0.7,0-1.3,0.6-1.4,1.3
			l-1.1,9.5c0,0.1,0.1,0.2,0.2,0.2c2-0.9,15.4-6.2,12.6,6.8c-2.9,13.1-15.3,26.3-15.3,45.8s28.7,20.2,28.7,20.2"/>
		<g>
			<polyline class="st1" points="255,155 229.5,152.7 222.2,146.6 211.2,174.7 224.6,174.7 249,184 			"/>
			<path class="st1" d="M223.4,175.9"/>
			<path class="st1" d="M229.5,152.7"/>
			<polyline class="st1" points="177,169 179.4,171.1 212.4,169.8 			"/>
			<polyline class="st1" points="219.2,152.3 194.6,131.9 173.8,133.2 170.1,141.7 170.1,146.6 166.5,152.7 170.4,158.8 			"/>
			<path class="st1" d="M176.9,142.9c0,15.9-21.7,28.2-24.4,39.1c-1.2,4.9,0,13.4,7.3,17.1c5.5,2.7,9.8,2.4,14.7,1.2
				c5.9-1.5,4.7-9.1,0-11c-6.1-2.4-11,2.4-11-6.1c0-12.2,23.2-10.4,23.2-41.5"/>
			<path class="st1" d="M186.3,131.9c-0.8-6-2.9-10.3-8.1-14.7c-11.9-10-26.9-7.3-30.6-1.2c-3.7,6.1-2.4,13.4-2.4,13.4
				s3.7,9.8,8.6,9.8s7.3-2.4,7.3-6.1c0-7.3-11-7.3-4.9-12.2c4.7-3.8,14.6,2,18.8,12.1"/>
			<g>
				<line class="st1" x1="118" y1="88" x2="147" y2="88"/>
				<line class="st1" x1="121.7" y1="97" x2="143.7" y2="97"/>
				<line class="st1" x1="111" y1="217.5" x2="153.7" y2="217.5"/>
				<line class="st1" x1="126.8" y1="73.3" x2="137.8" y2="73.3"/>
				<line class="st1" x1="126.8" y1="196.7" x2="137.8" y2="196.7"/>
				<path class="st1" d="M129.3,229.7h21.5l-6.8-4.8h2.4v-2.4h7.3v-9.8h-7.3l-9.8-7.3v-8.6c0,0,17.1-6.7,17.1-25.7
					s-13.4-53.8-13.4-53.8V97.7h3.7v-7.3l3.7-2.4v-1.4h8.6v-4.4h-8.6V79l-3.1,1l-6.7-6.7v-9.8h-3.7v-3.7h-3.7v3.7h-3.7v9.8l-6.7,6.7
					l-3.1-1v3.1h-8.6v4.4h8.6V88l3.7,2.4v7.3h3.7v19.6c0,0-13.4,32.4-13.4,53.8s17.1,25.7,17.1,25.7v8.6l-9.8,7.3H111v9.8h7.3v2.4
					h2.4l-5.8,4.8h20.5"/>
				<line class="st1" x1="119" y1="224" x2="146" y2="224"/>
			</g>
		</g>
	</g>
	<path class="st1" d="M192,142"/>
	<polyline class="st1" points="192,141 177,142 170,147 	"/>
</g>
</svg>
